<?xml version="1.0" encoding="UTF-8" standalone="no"?>
<svg width="24px" height="24px" viewBox="0 0 24 24" version="1.1" xmlns="http://www.w3.org/2000/svg" xmlns:xlink="http://www.w3.org/1999/xlink">
    <desc>Created with Sketch.</desc>
    <defs></defs>
    <g id="balances" stroke="none" stroke-width="1" fill="none" fill-rule="evenodd">
        <g id="vesi" transform="translate(1.000000, 4.000000)" fill="#000000" fill-rule="nonzero">
            <path d="M16.9581023,4.2441223 C16.5292668,4.88366427 15.9044978,6.24802047 14.8915588,9.19356804 C14.7818854,9.51272993 14.9544054,9.85869168 15.276032,9.96710927 C15.6013555,10.0743087 15.9488601,9.90498234 16.0573013,9.58703862 C16.6069008,7.99122914 17.3166975,6.17005725 17.7615527,5.29053478 C18.2064079,6.17127543 18.9174368,7.99244731 19.4658041,9.58703862 C19.5532964,9.84041905 19.7923598,10 20.0486753,10 C20.1139864,10 20.1805299,9.98903642 20.2470733,9.96832745 C20.5686999,9.85990986 20.74122,9.51394811 20.6315465,9.19478621 C20.0708564,7.566086 19.6309304,6.42709222 19.276032,5.6182239 C19.6050524,5.70471434 19.9648799,5.7607504 20.3838571,5.7607504 C20.723968,5.7607504 21,5.48787916 21,5.15166281 C21,4.81544646 20.723968,4.54257522 20.3838571,4.54257522 C19.2858903,4.54257522 18.7141097,4.08332318 17.9229821,3.44865392 C16.8681454,2.600804 15.5767098,1.58850043 12.7387554,1.28882933 C12.5144794,0.545742478 11.8256315,0 11,0 C10.1756007,0 9.48675293,0.545742478 9.26124461,1.28882933 C6.4232902,1.58850043 5.13185459,2.60202217 4.07701787,3.44865392 C3.28589033,4.08332318 2.71534196,4.54257522 1.61614295,4.54257522 C1.27603204,4.54257522 1,4.81544646 1,5.15166281 C1,5.48787916 1.27603204,5.7607504 1.61614295,5.7607504 C2.03265558,5.7607504 2.39125077,5.70471434 2.71780653,5.61944208 C2.36167591,6.42831039 1.92298213,7.56730418 1.3672212,9.19600439 C1.25878004,9.51516628 1.43130006,9.85990986 1.75415896,9.96710927 C2.07948244,10.0743087 2.42698706,9.90254599 2.53419593,9.58460227 C3.08133087,7.98148374 3.79235983,6.1481301 4.23721503,5.2746985 C4.68207024,6.1481301 5.3930992,7.98148374 5.94023413,9.58460227 C6.02649415,9.83920088 6.2667899,10 6.52433765,10 C6.5896488,10 6.65495995,9.98903642 6.72150339,9.96832745 C7.04436229,9.86112803 7.21688232,9.51638446 7.10844116,9.19722256 C6.10412816,6.24923864 5.47566235,4.88488245 5.04189772,4.24534048 C5.95625385,3.5180899 7.05175601,2.76282129 9.32162662,2.50822268 C9.59889094,3.15263735 10.245841,3.60458034 10.9987677,3.60458034 C11.7516944,3.60458034 12.3974122,3.15263735 12.6759088,2.50822268 C14.948244,2.76038494 16.0437461,3.51565355 16.9581023,4.2441223 Z" id="Shape"></path>
            <path d="M4.00000062,15 C6.20908287,15 8,13.2090826 8,11 L6.21008001e-07,11 C-0.00121789767,13.2090826 1.79091837,15 4.00000062,15 Z" id="Shape"></path>
            <path d="M14,11 C14,13.2090826 15.7909174,15 18,15 C20.2090826,15 22,13.2090826 22,11 L14,11 Z" id="Shape"></path>
        </g>
    </g>
</svg>