<?xml version="1.0" encoding="UTF-8"?>
<svg width="24px" height="24px" viewBox="0 0 24 24" version="1.1" xmlns="http://www.w3.org/2000/svg" xmlns:xlink="http://www.w3.org/1999/xlink">
    <!-- Generator: Sketch 51.2 (57519) - http://www.bohemiancoding.com/sketch -->
    <desc>Created with Sketch.</desc>
    <defs></defs>
    <g id="НСИ_Формы_сбора" stroke="none" stroke-width="1" fill="none" fill-rule="evenodd">
        <g id="Формы-сбора_виджет" transform="translate(-1397.000000, -25.000000)" fill="#000000" fill-rule="nonzero">
            <g id="icons8-alarm" transform="translate(1397.000000, 25.000000)">
                <path d="M12,0 C11.0064,0 10.2,0.8064 10.2,1.8 L10.2,2.634375 C7.09582032,3.434514 4.8,6.24576012 4.8,9.6 L4.8,16.8 L2.4,19.2 L2.4,20.4 L21.6,20.4 L21.6,19.2 L19.2,16.8 L19.2,9.6 C19.2,6.24576012 16.9041792,3.434514 13.8,2.634375 L13.8,1.8 C13.8,0.8064 12.9936,0 12,0 Z M4.68984372,0.09843744 C1.84224372,2.29203744 0,5.7264 0,9.6 L2.4,9.6 C2.4,6.5016 3.87474372,3.75361872 6.15234372,1.99921872 L4.68984372,0.09843744 Z M19.3101564,0.09843744 L17.8476564,1.99921872 C20.1252564,3.75361872 21.6,6.5016 21.6,9.6 L24,9.6 C24,5.7264 22.1577564,2.29203744 19.3101564,0.09843744 Z M9.6,21.6 C9.6,22.92 10.68,24 12,24 C13.32,24 14.4,22.92 14.4,21.6 L9.6,21.6 Z" id="Shape"></path>
            </g>
        </g>
    </g>
</svg>
