<?xml version="1.0" encoding="UTF-8" standalone="no"?>
<svg width="24px" height="24px" viewBox="0 0 24 24" version="1.1" xmlns="http://www.w3.org/2000/svg" xmlns:xlink="http://www.w3.org/1999/xlink">
    <!-- Generator: Sketch 50.2 (55047) - http://www.bohemiancoding.com/sketch -->
    <desc>Created with Sketch.</desc>
    <defs></defs>
    <g id="efficiency" stroke="none" stroke-width="1" fill="none" fill-rule="evenodd">
        <g id="energy" transform="translate(3.000000, 1.000000)" fill="#000000" fill-rule="nonzero">
            <path d="M11.4192,11.1942 C8.2197,11.1942 5.625,13.788 5.625,16.9884 C5.625,20.1879 8.2188,22.7826 11.4192,22.7826 C14.6196,22.7826 17.2134,20.1888 17.2134,16.9884 C17.2125,13.788 14.6187,11.1942 11.4192,11.1942 Z M13.2381,16.9065 L11.8692,15.5376 L11.8692,20.1384 L10.9692,20.1384 L10.9692,15.5376 L9.6003,16.9065 L8.964,16.2702 L11.4201,13.8141 L13.8762,16.2702 L13.2381,16.9065 Z" id="Shape"></path>
            <path d="M4.5765,16.0101 C4.9446,13.4127 6.7509,11.2824 9.1674,10.4508 L5.6502,8.9253 L5.6241,8.8578 L10.5273,0.5562 L0.7209,10.3626 L4.9131,12.1806 L4.9392,12.2481 L0.036,20.5497 L4.5765,16.0101 Z" id="Shape"></path>
        </g>
    </g>
</svg>