<?xml version="1.0" encoding="UTF-8"?>
<svg width="6px" height="20px" viewBox="0 0 6 20" version="1.1" xmlns="http://www.w3.org/2000/svg" xmlns:xlink="http://www.w3.org/1999/xlink">
    <!-- Generator: Sketch 51.2 (57519) - http://www.bohemiancoding.com/sketch -->
    <desc>Created with Sketch.</desc>
    <defs></defs>
    <g id="НСИ_Формы_сбора" stroke="none" stroke-width="1" fill="none" fill-rule="evenodd">
        <g id="Формы-сбора_виджет" transform="translate(-1402.000000, -405.000000)" fill="#BBBDBF" fill-rule="nonzero">
            <g id="Group-4" transform="translate(1070.000000, 387.000000)">
                <g id="icons8-menu_2_filled" transform="translate(332.000000, 18.000000)">
                    <path d="M2.72727273,0 C1.22691773,0 0,1.22691773 0,2.72727273 C0,4.22762773 1.22691773,5.45454545 2.72727273,5.45454545 C4.22762773,5.45454545 5.45454545,4.22762773 5.45454545,2.72727273 C5.45454545,1.22691773 4.22762773,0 2.72727273,0 Z M2.72727273,7.27272727 C1.22691773,7.27272727 0,8.499645 0,10 C0,11.500355 1.22691773,12.7272727 2.72727273,12.7272727 C4.22762773,12.7272727 5.45454545,11.500355 5.45454545,10 C5.45454545,8.499645 4.22762773,7.27272727 2.72727273,7.27272727 Z M2.72727273,14.5454545 C1.22691773,14.5454545 0,15.7723723 0,17.2727273 C0,18.7730823 1.22691773,20 2.72727273,20 C4.22762773,20 5.45454545,18.7730823 5.45454545,17.2727273 C5.45454545,15.7723723 4.22762773,14.5454545 2.72727273,14.5454545 Z" id="Shape"></path>
                </g>
            </g>
        </g>
    </g>
</svg>