<?xml version="1.0" encoding="UTF-8"?>
<svg width="9px" height="12px" viewBox="0 0 9 12" version="1.1" xmlns="http://www.w3.org/2000/svg" xmlns:xlink="http://www.w3.org/1999/xlink">
    <!-- Generator: Sketch 51.2 (57519) - http://www.bohemiancoding.com/sketch -->
    <desc>Created with Sketch.</desc>
    <defs></defs>
    <g id="НСИ_Формы_сбора" stroke="none" stroke-width="1" fill="none" fill-rule="evenodd">
        <g id="Формы-сбора_виджет" transform="translate(-1089.000000, -463.000000)" fill="#000000" fill-rule="nonzero">
            <g id="Group-4" transform="translate(1070.000000, 387.000000)">
                <g id="Group-2">
                    <g id="icons8-google_docs_filled" transform="translate(19.000000, 76.000000)">
                        <path d="M8.79313852,3.0764267 L5.79313852,0.0764266957 C5.74422548,0.0275136522 5.67798913,0 5.60869565,0 L0.911005565,0 C0.408627652,0 0,0.407608696 0,0.907948435 L0,10.9310463 C0,11.5200407 0.480978261,12 1.07302983,12 L7.79653539,12 C8.38858696,12 8.86956522,11.5200407 8.86956522,10.9310463 L8.86956522,3.26086957 C8.86956522,3.19157609 8.84205157,3.12533974 8.79313852,3.0764267 Z M4.69565217,9.39130435 L2.34782609,9.39130435 L2.34782609,8.86956522 L4.69565217,8.86956522 L4.69565217,9.39130435 Z M6.52173913,8.34782609 L2.34782609,8.34782609 L2.34782609,7.82608696 L6.52173913,7.82608696 L6.52173913,8.34782609 Z M6.52173913,7.30434783 L2.34782609,7.30434783 L2.34782609,6.7826087 L6.52173913,6.7826087 L6.52173913,7.30434783 Z M6.52173913,6.26086957 L2.34782609,6.26086957 L2.34782609,5.73913043 L6.52173913,5.73913043 L6.52173913,6.26086957 Z M6.17425278,3.13043478 C5.93376365,3.13043478 5.73913043,2.93580157 5.73913043,2.69531243 L5.73913043,0.760190348 L8.10937513,3.13043478 L6.17425278,3.13043478 Z" id="Shape"></path>
                    </g>
                </g>
            </g>
        </g>
    </g>
</svg>
