<?xml version="1.0" encoding="UTF-8" standalone="no"?>
<svg width="24px" height="24px" viewBox="0 0 24 24" version="1.1" xmlns="http://www.w3.org/2000/svg" xmlns:xlink="http://www.w3.org/1999/xlink">
    <!-- Generator: Sketch 50.2 (55047) - http://www.bohemiancoding.com/sketch -->
    <desc>Created with Sketch.</desc>
    <defs></defs>
    <g id="heating" stroke="none" stroke-width="1" fill="none" fill-rule="evenodd">
        <g id="teplo" transform="translate(2.000000, 2.000000)" fill="#000000" fill-rule="nonzero">
            <path d="M7.04545455,4.88636364 C7.04545455,3.75818182 6.12818182,2.84090909 5,2.84090909 C3.87181818,2.84090909 2.95454545,3.75818182 2.95454545,4.88636364 L2.95454545,17.2727273 C2.95454545,18.4009091 3.87181818,19.3181818 5,19.3181818 C6.12818182,19.3181818 7.04545455,18.4009091 7.04545455,17.2727273 L7.04545455,4.88636364 Z" id="Shape"></path>
            <path d="M12.0454545,4.88636364 C12.0454545,3.75818182 11.1281818,2.84090909 10,2.84090909 C8.87181818,2.84090909 7.95454545,3.75818182 7.95454545,4.88636364 L7.95454545,17.2727273 C7.95454545,18.4009091 8.87181818,19.3181818 10,19.3181818 C11.1281818,19.3181818 12.0454545,18.4009091 12.0454545,17.2727273 L12.0454545,4.88636364 Z" id="Shape"></path>
            <path d="M17.0454545,4.88636364 C17.0454545,3.75818182 16.1281818,2.84090909 15,2.84090909 C13.8718182,2.84090909 12.9545455,3.75818182 12.9545455,4.88636364 L12.9545455,17.2727273 C12.9545455,18.4009091 13.8718182,19.3181818 15,19.3181818 C16.1281818,19.3181818 17.0454545,18.4009091 17.0454545,17.2727273 L17.0454545,4.88636364 Z" id="Shape"></path>
            <polygon id="Shape" points="0 6.12545455 0 5.12545455 2.04545455 5.12545455 2.04545455 6.12545455"></polygon>
            <polygon id="Shape" points="19.5 3.80727273 20.5 3.80727273 20.5 6.12545455 17.9927273 6.12545455 17.9927273 5.12545455 19.5 5.12545455"></polygon>
            <path d="M5.25,1.96727273 L4.75,1.96727273 C4.75,1.60198409 4.67090823,1.45036894 4.4287122,1.21675357 C4.40734058,1.19619544 4.40734058,1.19619544 4.38523117,1.17496713 C4.07957254,0.880963398 3.95454545,0.657815668 3.95454545,0.234545455 L4.45454545,0.234545455 C4.45454545,0.498213566 4.51490114,0.605936092 4.73184752,0.814610212 C4.75339273,0.835296192 4.75339273,0.835296192 4.77583326,0.856882798 C5.10779631,1.17708488 5.25,1.44968257 5.25,1.96727273 Z" id="Shape"></path>
            <path d="M15.25,1.96727273 L14.75,1.96727273 C14.75,1.44968257 14.8922037,1.17708488 15.2241667,0.856882798 C15.2466073,0.835296192 15.2466073,0.835296192 15.2681525,0.814610212 C15.4850989,0.605936092 15.5454545,0.498213566 15.5454545,0.234545455 L16.0454545,0.234545455 C16.0454545,0.657815668 15.9204275,0.880963398 15.6147688,1.17496713 C15.5926594,1.19619544 15.5926594,1.19619544 15.5712878,1.21675357 C15.3290918,1.45036894 15.25,1.60198409 15.25,1.96727273 Z" id="Shape"></path>
            <polygon id="Shape" points="10.25 1.96727273 9.75 1.96727273 9.75 0.234545455 10.25 0.234545455"></polygon>
        </g>
    </g>
</svg>