<?xml version="1.0" encoding="UTF-8"?>
<svg width="8px" height="20px" viewBox="0 0 8 20" version="1.1" xmlns="http://www.w3.org/2000/svg" xmlns:xlink="http://www.w3.org/1999/xlink">
    <!-- Generator: Sketch 51.1 (57501) - http://www.bohemiancoding.com/sketch -->
    <desc>Created with Sketch.</desc>
    <defs></defs>
    <g id="Page-1" stroke="none" stroke-width="1" fill="none" fill-rule="evenodd">
        <g id="Навигация-1" transform="translate(-158.000000, -757.000000)" fill="#FFFFFF" fill-rule="nonzero">
            <g id="icons8-information" transform="translate(158.000000, 757.000000)">
                <path d="M4,0 C2.343,0 1,1.343 1,3 C1,4.657 2.343,6 4,6 C5.657,6 7,4.657 7,3 C7,1.343 5.657,0 4,0 Z M0,8 L0,10 L2,10 L2,18 L0,18 L0,20 L8,20 L8,18 L6,18 L6,9 C6,8.448 5.552,8 5,8 L3,8 L0,8 Z" id="Shape"></path>
            </g>
        </g>
    </g>
</svg>