<?xml version="1.0" encoding="UTF-8" standalone="no"?>
<svg width="24px" height="24px" viewBox="0 0 24 24" version="1.1" xmlns="http://www.w3.org/2000/svg" xmlns:xlink="http://www.w3.org/1999/xlink">
    <!-- Generator: Sketch 50.2 (55047) - http://www.bohemiancoding.com/sketch -->
    <desc>Created with Sketch.</desc>
    <defs></defs>
    <g id="investments" stroke="none" stroke-width="1" fill="none" fill-rule="evenodd">
        <g id="investicii" transform="translate(4.000000, 2.000000)" fill="#000000" fill-rule="nonzero">
            <path d="M3.84736842,13.6393684 C4.13547368,12.2945789 4.81278947,11.0947368 5.75673684,10.1633158 L4.43431579,10.1633158 L4.43431579,8.73531579 L5.48652632,8.73531579 C6.32578947,8.73531579 7.03978947,8.62526316 7.62852632,8.40605263 C8.21726316,8.18684211 8.69594737,7.88978947 9.06547368,7.51310526 C9.435,7.13731579 9.70431579,6.70515789 9.87342105,6.21663158 C10.0425263,5.72810526 10.1266316,5.20826316 10.1266316,4.65710526 C10.1266316,4.11847368 10.0425263,3.59505263 9.87342105,3.08863158 C9.70431579,2.58221053 9.435,2.13663158 9.06547368,1.75457895 C8.69594737,1.37252632 8.21726316,1.06563158 7.62852632,0.833894737 C7.03978947,0.602157895 6.32578947,0.485842105 5.48652632,0.485842105 L1.99168421,0.485842105 L1.99168421,6.72394737 L0.432157895,6.72394737 L0.432157895,8.73442105 L1.99168421,8.73442105 L1.99168421,10.1624211 L0.432157895,10.1624211 L0.432157895,12.0977368 L1.99168421,12.0977368 L1.99168421,13.6384737 L3.84736842,13.6384737 L3.84736842,13.6393684 Z M4.43431579,2.44084211 L5.24226316,2.44084211 C5.58047368,2.44084211 5.89631579,2.47573684 6.19157895,2.54463158 C6.48594737,2.61352632 6.74631579,2.73252632 6.97178947,2.90163158 C7.19726316,3.07073684 7.37263158,3.29889474 7.49789474,3.58789474 C7.62315789,3.876 7.68578947,4.233 7.68578947,4.65889474 C7.68578947,5.08478947 7.62315789,5.43284211 7.49789474,5.70215789 C7.37263158,5.97147368 7.19726316,6.18173684 6.97178947,6.33205263 C6.74631579,6.48236842 6.48594737,6.58526316 6.19157895,6.64252632 C5.89721053,6.69889474 5.58047368,6.72663158 5.24226316,6.72663158 L4.43431579,6.72663158 L4.43431579,2.44084211 Z" id="Shape"></path>
            <path d="M10.625,9.33926316 C7.44421053,9.33926316 4.86468421,11.9178947 4.86468421,15.0995789 C4.86468421,18.2803684 7.44331579,20.8598947 10.625,20.8598947 C13.8066842,20.8598947 16.3853158,18.2812632 16.3853158,15.0995789 C16.3844211,11.9178947 13.8057895,9.33926316 10.625,9.33926316 Z M12.4332632,15.0181579 L11.0723684,13.6572632 L11.0723684,18.2311579 L10.1776316,18.2311579 L10.1776316,13.6572632 L8.81673684,15.0181579 L8.18415789,14.3855789 L10.6258947,11.9438421 L13.0676316,14.3855789 L12.4332632,15.0181579 Z" id="Shape"></path>
        </g>
    </g>
</svg>