<?xml version="1.0" encoding="UTF-8"?>
<svg width="20px" height="20px" viewBox="0 0 20 20" version="1.1" xmlns="http://www.w3.org/2000/svg" xmlns:xlink="http://www.w3.org/1999/xlink">
    <!-- Generator: Sketch 51.1 (57501) - http://www.bohemiancoding.com/sketch -->
    <desc>Created with Sketch.</desc>
    <defs></defs>
    <g id="Page-1" stroke="none" stroke-width="1" fill="none" fill-rule="evenodd">
        <g id="Навигация-1" transform="translate(-215.000000, -757.000000)" fill="#FFFFFF" fill-rule="nonzero">
            <g id="icons8-hibernate" transform="translate(215.000000, 757.000000)">
                <path d="M10,0 C4.488281,0 0,4.488281 0,10 C0,15.511719 4.488281,20 10,20 C15.511719,20 20,15.511719 20,10 C20,4.488281 15.511719,0 10,0 Z M10,2 C14.429688,2 18,5.570313 18,10 C18,14.429688 14.429688,18 10,18 C5.570313,18 2,14.429688 2,10 C2,5.570313 5.570313,2 10,2 Z M9,6 L9,14 L11,14 L11,6 L9,6 Z" id="Shape"></path>
            </g>
        </g>
    </g>
</svg>