<?xml version="1.0" encoding="UTF-8" standalone="no"?>
<svg width="24px" height="24px" viewBox="0 0 24 24" version="1.1" xmlns="http://www.w3.org/2000/svg" xmlns:xlink="http://www.w3.org/1999/xlink">
    <!-- Generator: Sketch 50.2 (55047) - http://www.bohemiancoding.com/sketch -->
    <desc>Created with Sketch.</desc>
    <defs></defs>
    <g id="map" stroke="none" stroke-width="1" fill="none" fill-rule="evenodd">
        <g transform="translate(2.000000, 4.000000)" fill="#000000" fill-rule="nonzero" id="Shape">
            <path d="M16.8731538,9.05393016 L19.9528668,15.5221838 C20.0773614,15.7850871 19.9467441,16 19.6610185,16 L0.339850452,16 C0.054124928,16 -0.0785333509,15.7850871 0.0480022382,15.5221838 L3.1277152,9.05393016 C3.17669672,8.95169003 3.309355,8.86614215 3.41956342,8.86614215 L6.06048362,8.86614215 C6.14211948,8.86614215 6.2523279,8.91830549 6.30539121,8.98090149 C6.48499011,9.19164137 6.6666299,9.40029472 6.8482697,9.60477499 C7.02174591,9.7988226 7.19522212,9.99495675 7.36665744,10.1973505 L4.23184026,10.1973505 C4.11959095,10.1973505 3.98897357,10.2808118 3.93999205,10.3851385 L1.89909545,14.6708782 L18.0976917,14.6708782 L16.0567952,10.3851385 C16.0078136,10.2828984 15.8771963,10.1973505 15.7649469,10.1973505 L12.626048,10.1973505 C12.7974833,9.99495675 12.9730004,9.7988226 13.1444357,9.60477499 C13.3260755,9.40029472 13.5097562,9.1937279 13.6893551,8.98090149 C13.7424184,8.91830549 13.8526268,8.86614215 13.9342627,8.86614215 L16.5813056,8.86614215 C16.691514,8.86614215 16.8241723,8.94960349 16.8731538,9.05393016 Z M14.5261227,4.6325658 C14.5261227,8.16715345 11.6484585,8.82858455 10.2953441,12.225461 C10.1851356,12.5008834 9.80552887,12.5008834 9.69532046,12.2233745 C8.47486429,9.16034337 6.01354299,8.32155692 5.54413678,5.59237118 C5.08085325,2.90908917 6.89929212,0.277970497 9.55449859,0.0213268834 C12.2546048,-0.239489797 14.5261227,1.92633192 14.5261227,4.6325658 Z M12.389304,4.6325658 C12.389304,3.28049212 11.3178333,2.1871486 9.99737315,2.1871486 C8.67487216,2.1871486 7.60544234,3.28257866 7.60544234,4.6325658 C7.60544234,5.98463947 8.67691305,7.07798299 9.99737315,7.07798299 C11.3178333,7.08006953 12.389304,5.98463947 12.389304,4.6325658 Z"></path>
        </g>
    </g>
</svg>