<?xml version="1.0" encoding="UTF-8"?>
<svg width="10px" height="10px" viewBox="0 0 10 10" version="1.1" xmlns="http://www.w3.org/2000/svg" xmlns:xlink="http://www.w3.org/1999/xlink">
    <!-- Generator: Sketch 51.1 (57501) - http://www.bohemiancoding.com/sketch -->
    <desc>Created with Sketch.</desc>
    <defs></defs>
    <g id="НСИ" stroke="none" stroke-width="1" fill="#000000" fill-rule="evenodd">
        <g id="НСИ_Таблица_1.3" transform="translate(-36.000000, -490.000000)" fill-rule="nonzero">
            <g id="боковое-меню" transform="translate(-1.000000, 74.000000)">
                <g id="Форма-сбора" transform="translate(37.000000, 414.000000)">
                    <path d="M0.238095238,2 C0.106956905,2 0,2.1069569 0,2.23809524 L0,4.61904762 C0,4.75018595 0.106956905,4.85714286 0.238095238,4.85714286 L9.76190476,4.85714286 C9.89397333,4.85714286 10,4.75018595 10,4.61904762 L10,2.23809524 C10,2.1069569 9.89397333,2 9.76190476,2 L0.238095238,2 Z M0.238095238,5.33333333 C0.106956905,5.33333333 0,5.44029024 0,5.57142857 L0,11.7619048 C0,11.8939733 0.106956905,12 0.238095238,12 L5.95238095,12 C6.08444952,12 6.19047619,11.8939733 6.19047619,11.7619048 L6.19047619,5.57142857 C6.19047619,5.44029024 6.08444952,5.33333333 5.95238095,5.33333333 L0.238095238,5.33333333 Z M6.9047619,5.33333333 C6.77269357,5.33333333 6.66666667,5.44029024 6.66666667,5.57142857 L6.66666667,7 C6.66666667,7.13113833 6.77269357,7.23809524 6.9047619,7.23809524 L9.76190476,7.23809524 C9.89397333,7.23809524 10,7.13113833 10,7 L10,5.57142857 C10,5.44029024 9.89397333,5.33333333 9.76190476,5.33333333 L6.9047619,5.33333333 Z M6.9047619,7.71428571 C6.77269357,7.71428571 6.66666667,7.82031262 6.66666667,7.95238095 L6.66666667,9.38095238 C6.66666667,9.51302095 6.77269357,9.61904762 6.9047619,9.61904762 L9.76190476,9.61904762 C9.89397333,9.61904762 10,9.51302095 10,9.38095238 L10,7.95238095 C10,7.82031262 9.89397333,7.71428571 9.76190476,7.71428571 L6.9047619,7.71428571 Z M6.9047619,10.0952381 C6.77269357,10.0952381 6.66666667,10.201265 6.66666667,10.3333333 L6.66666667,11.7619048 C6.66666667,11.8939733 6.77269357,12 6.9047619,12 L9.76190476,12 C9.89397333,12 10,11.8939733 10,11.7619048 L10,10.3333333 C10,10.201265 9.89397333,10.0952381 9.76190476,10.0952381 L6.9047619,10.0952381 Z" id="Shape"></path>
                </g>
            </g>
        </g>
    </g>
</svg>