<svg xmlns="http://www.w3.org/2000/svg" width="15" height="11" viewBox="0 0 15 11">
    <path fill="#000000" fill-rule="nonzero" d="M7.526 0a.27.27 0 0 0-.108.018L.47 2.913a.3.3 0 0 0-.18.271.3.3 0 0 0 .18.272L7.418 6.35a.27.27 0 0 0 .108.018.27.27 0 0 0 .109-.018l6.947-2.894a.3.3 0 0 0 .181-.272.3.3 0 0 0-.18-.271L7.634.018A.274.274 0 0 0 7.526 0zM.525 4.342a.289.289 0 1 0-.054.56l6.947 2.896c.07.028.147.028.217 0l6.947-2.895a.292.292 0 1 0-.217-.543L7.526 7.21.688 4.36a.286.286 0 0 0-.163-.018zm0 1.447a.289.289 0 1 0-.054.56l6.947 2.896c.07.028.147.028.217 0l6.947-2.895a.292.292 0 1 0-.217-.542l-6.839 2.85-6.838-2.85a.286.286 0 0 0-.163-.019zm0 1.448a.289.289 0 1 0-.054.56l6.947 2.895c.07.029.147.029.217 0l6.947-2.894a.292.292 0 1 0-.217-.543l-6.839 2.85-6.838-2.85a.286.286 0 0 0-.163-.018z"/>
</svg>
