<?xml version="1.0" encoding="UTF-8"?>
<svg width="10px" height="12px" viewBox="0 0 10 12" version="1.1" xmlns="http://www.w3.org/2000/svg" xmlns:xlink="http://www.w3.org/1999/xlink">
    <!-- Generator: Sketch 51.1 (57501) - http://www.bohemiancoding.com/sketch -->
    <desc>Created with Sketch.</desc>
    <defs></defs>
    <g id="НСИ" stroke="none" stroke-width="1" fill="#000000" fill-rule="evenodd">
        <g id="НСИ_Таблица_1.3" transform="translate(-36.000000, -342.000000)" fill-rule="nonzero">
            <g id="боковое-меню" transform="translate(-1.000000, 74.000000)">
                <g id="Справочники" transform="translate(37.000000, 266.000000)">
                    <g id="icons8-book_filled-copy-2" transform="translate(0.000000, 2.000000)">
                        <path d="M1.56521739,9.65217391 L9.91304348,9.65217391 L9.91304348,0 L1.56521739,0 C0.702105913,0 0,0.702105913 0,1.56521739 L0,10.543818 C0,11.3468071 0.702105913,12 1.56521739,12 L9.91304348,12 L9.91304348,11.4782609 L1.56521739,11.4782609 C0.999660261,11.4782609 0.52173913,11.0502717 0.52173913,10.543818 C0.52173913,10.0434783 0.980299043,9.65217391 1.56521739,9.65217391 Z M2.08695652,2.2173913 C2.08695652,2.1450407 2.1450407,2.08695652 2.2173913,2.08695652 L7.95652174,2.08695652 C8.02887235,2.08695652 8.08695652,2.1450407 8.08695652,2.2173913 L8.08695652,3.52173913 C8.08695652,3.59408974 8.02887235,3.65217391 7.95652174,3.65217391 L2.2173913,3.65217391 C2.1450407,3.65217391 2.08695652,3.59408974 2.08695652,3.52173913 L2.08695652,2.2173913 Z" id="Shape"></path>
                    </g>
                </g>
            </g>
        </g>
    </g>
</svg>