<?xml version="1.0" encoding="UTF-8"?>
<svg width="20px" height="20px" viewBox="0 0 20 20" version="1.1" xmlns="http://www.w3.org/2000/svg" xmlns:xlink="http://www.w3.org/1999/xlink">
    <desc>Created with Sketch.</desc>
    <defs></defs>
    <g id="НСИ_Формы_сбора" stroke="none" stroke-width="1" fill="none" fill-rule="evenodd">
        <g id="Справочник_Администратор" transform="translate(-1399.000000, -278.000000)" fill="#000000" fill-rule="nonzero">
            <g id="icons8-settings" transform="translate(1399.000000, 278.000000)">
                <path d="M9.423828,0 C9.179828,0 8.969688,0.1769687 8.929688,0.4179688 L8.646484,2.1230469 C8.159736,2.2067166 7.689176,2.3360771 7.2363281,2.5039062 L6.1347656,1.1679688 C5.9797656,0.9789688 5.7100469,0.9297344 5.4980469,1.0527344 L4.5019531,1.6289062 C4.2899531,1.7509062 4.1972031,2.0083281 4.2832031,2.2363281 L4.8886719,3.8535156 C4.513238,4.1663963 4.1663963,4.513238 3.8535156,4.8886719 L2.2363281,4.2832031 C2.0083281,4.1972031 1.7509062,4.2899531 1.6289062,4.5019531 L1.0527344,5.4980469 C0.9297344,5.7100469 0.9789688,5.9797656 1.1679688,6.1347656 L2.5039062,7.2363281 C2.3360771,7.689176 2.2067166,8.159736 2.1230469,8.646484 L0.4179688,8.929688 C0.1769687,8.970688 0,9.178828 0,9.423828 L0,10.576172 C0,10.820172 0.1769687,11.030312 0.4179688,11.070312 L2.1230469,11.353516 C2.2067166,11.840264 2.3360771,12.310824 2.5039062,12.763672 L1.1679688,13.865234 C0.9789687,14.020234 0.9307344,14.289953 1.0527344,14.501953 L1.6289062,15.498047 C1.7509062,15.710047 2.0083281,15.802797 2.2363281,15.716797 L3.8535156,15.111328 C4.1663963,15.486762 4.513238,15.833604 4.8886719,16.146484 L4.2832031,17.763672 C4.1972031,17.992672 4.2909531,18.249094 4.5019531,18.371094 L5.4980469,18.947266 C5.7100469,19.069266 5.9797656,19.020031 6.1347656,18.832031 L7.234375,17.496094 C7.6877476,17.664236 8.15912,17.793178 8.646484,17.876953 L8.929688,19.582031 C8.970688,19.823031 9.178828,20 9.423828,20 L10.576172,20 C10.820172,20 11.030312,19.823031 11.070312,19.582031 L11.353516,17.876953 C11.840264,17.793283 12.310824,17.663923 12.763672,17.496094 L13.865234,18.832031 C14.020234,19.021031 14.289953,19.069266 14.501953,18.947266 L15.498047,18.371094 C15.710047,18.249094 15.802797,17.991672 15.716797,17.763672 L15.111328,16.146484 C15.486762,15.833604 15.833604,15.486762 16.146484,15.111328 L17.763672,15.716797 C17.992672,15.802797 18.249094,15.709047 18.371094,15.498047 L18.947266,14.501953 C19.069266,14.289953 19.020031,14.020234 18.832031,13.865234 L17.496094,12.765625 C17.664236,12.312252 17.793178,11.84088 17.876953,11.353516 L19.582031,11.070312 C19.823031,11.029312 20,10.821172 20,10.576172 L20,9.423828 C20,9.179828 19.823031,8.969688 19.582031,8.929688 L17.876953,8.646484 C17.793283,8.159736 17.663923,7.689176 17.496094,7.2363281 L18.832031,6.1347656 C19.021031,5.9797656 19.069266,5.7100469 18.947266,5.4980469 L18.371094,4.5019531 C18.249094,4.2899531 17.991672,4.1972031 17.763672,4.2832031 L16.146484,4.8886719 C15.833604,4.513238 15.486762,4.1663963 15.111328,3.8535156 L15.716797,2.2363281 C15.802797,2.0073281 15.709047,1.7509062 15.498047,1.6289062 L14.501953,1.0527344 C14.289953,0.9307344 14.020234,0.9799687 13.865234,1.1679688 L12.765625,2.5039062 C12.312252,2.3357635 11.84088,2.2068225 11.353516,2.1230469 L11.070312,0.4179688 C11.029312,0.1769687 10.821172,0 10.576172,0 L9.423828,0 Z M9,4.0898438 L9,7.1738281 C7.80214065,7.59733493 7.00095523,8.72947879 7,10 C7.00005011,10.1841133 7.0170489,10.3678312 7.0507812,10.548828 L4.3789062,12.089844 C4.1382306,11.438833 4,10.736987 4,10 C4,7.0161425 6.1553612,4.5637988 9,4.0898438 Z M11,4.0898438 C13.844639,4.5637988 16,7.0161425 16,10 C16,10.737875 15.86037,11.440133 15.619141,12.091797 L12.947266,10.546875 C12.9815343,10.36658 12.9991863,10.1835209 13,10 C12.9982183,8.73019582 12.1971845,7.59904843 11,7.1757812 L11,4.0898438 Z M11.947266,12.277344 L14.628906,13.826172 C13.530388,15.156023 11.868625,16 10,16 C8.131375,16 6.4696124,15.156023 5.3710938,13.826172 L8.050781,12.279297 C8.59390266,12.7440932 9.2851458,12.999673 10,13 C10.7144303,12.9986638 11.4049318,12.7424096 11.947266,12.277344 Z" id="Shape"></path>
            </g>
        </g>
    </g>
</svg>