<?xml version="1.0" encoding="UTF-8"?>
<svg width="12px" height="12px" viewBox="0 0 12 12" version="1.1" xmlns="http://www.w3.org/2000/svg" xmlns:xlink="http://www.w3.org/1999/xlink">
    <!-- Generator: Sketch 51.2 (57519) - http://www.bohemiancoding.com/sketch -->
    <desc>Created with Sketch.</desc>
    <defs></defs>
    <g id="НСИ_Формы_сбора" stroke="none" stroke-width="1" fill="none" fill-rule="evenodd">
        <g id="Группы-НСИ_Администратор_11" transform="translate(-261.000000, -5.000000)" fill="#000000" fill-rule="nonzero">
            <g id="icons8-folder_tree" transform="translate(261.000000, 5.000000)">
                <path d="M0.5,0 C0.223857625,0 0,0.223857625 0,0.5 C0,0.776142375 0.223857625,1 0.5,1 C0.776142375,1 1,0.776142375 1,0.5 C1,0.223857625 0.776142375,0 0.5,0 Z M6.8847656,1 C6.4166796,1 6,1.3770408 6,1.8632812 L6,3 L1,3 L1,2 L0,2 L0,8.5 C0,9.322531 0.6774686,10 1.5,10 L6,10 L6,11.166016 C6,11.663421 6.4384889,11.998047 6.8847656,11.998047 L11.115234,11.998047 C11.561411,11.998047 12.001953,11.66161 12.001953,11.166016 L12.001953,8.832031 C12.001953,8.334625 11.561511,8 11.115234,8 L8.867188,8 L8.552734,7.4472656 C8.393074,7.1618119 8.092658,7 7.7792969,7 L6.8847656,7 C6.4166796,7 6,7.3770409 6,7.8632812 L6,9 L1.5,9 C1.2185314,9 1,8.781469 1,8.5 L1,4 L6,4 L6,5.1679688 C6,5.6628682 6.4379818,5.9991915 6.8847656,5.9980469 L11.115234,5.9980469 C11.561411,5.9980469 12.001953,5.6616098 12.001953,5.1660156 L12.001953,2.8320312 C12.001953,2.3346256 11.561511,2 11.115234,2 L8.867188,2 L8.552734,1.4472656 C8.393074,1.1618119 8.092658,1 7.7792969,1 L6.8847656,1 Z M7,2 L7.7167969,2 L8.066406,2.6152344 L8.246094,3 L8.564453,3 L11.001953,3 L11.001953,4.9980469 L7,4.9980469 L7,2 Z M7,8 L7.7167969,8 L8.066406,8.615234 L8.246094,9 L8.564453,9 L11.001953,9 L11.001953,10.998047 L7,10.998047 L7,8 Z" id="Shape"></path>
            </g>
        </g>
    </g>
</svg>