<?xml version="1.0" encoding="UTF-8"?>
<svg viewBox="0 0 13 11" version="1.1" xmlns="http://www.w3.org/2000/svg" xmlns:xlink="http://www.w3.org/1999/xlink">
    <g id="НСИ" stroke="none" stroke-width="1" fill="#000000" fill-rule="evenodd">
        <g transform="translate(-35.000000, -117.000000)" fill-rule="nonzero">
            <g id="боковое-меню" transform="translate(-1.000000, 74.000000)">
                <g id="Группы" transform="translate(36.000000, 41.000000)">
                    <path d="M0.76744186,2 C0.344749209,2 0,2.34474921 0,2.76744186 L0,9.44258721 C0.374727535,7.44803779 0.794422302,5.21066491 0.815406977,5.10174419 C0.945312628,4.43922595 1.44494926,4.04651163 2.15843023,4.04651163 L12.0232558,4.04651163 L12.0232558,3.79069767 C12.0232558,3.36800502 11.6785066,3.02325581 11.255814,3.02325581 L4.61264535,3.02325581 C4.54169688,2.99727484 4.39580312,2.76544344 4.31686047,2.63953488 C4.1200037,2.32576321 3.91815037,2 3.58139535,2 L0.76744186,2 Z M2.15843023,4.55813953 C1.8306686,4.55813953 1.42296512,4.67305602 1.3190407,5.2056686 C1.28606474,5.37154809 0.289789372,10.6746911 0,12.2165698 L0,12.2325581 C0,12.6552508 0.344749209,13 0.76744186,13 L10.744186,13 C11.1588845,13 11.4976382,12.6682413 11.5116279,12.2565407 L12.7827035,5.37354651 L12.7906977,5.3255814 C12.7906977,4.90288874 12.4459485,4.55813953 12.0232558,4.55813953 L2.15843023,4.55813953 Z" id="Shape-Copy"></path>
                </g>
            </g>
        </g>
    </g>
</svg>