<?xml version="1.0" encoding="UTF-8"?>
<svg viewBox="0 0 10 12" version="1.1" xmlns="http://www.w3.org/2000/svg" xmlns:xlink="http://www.w3.org/1999/xlink">
    <g id="НСИ" stroke="none" stroke-width="1" fill="#000000" fill-rule="evenodd">
        <g id="НСИ_Таблица_1.3" transform="translate(-36.000000, -445.000000)" fill-rule="nonzero">
            <g id="боковое-меню" transform="translate(-1.000000, 74.000000)">
                <g id="Классификатор" transform="translate(37.000000, 326.000000)">
                    <path d="M0,45 L0,57 L9.39130435,57 L9.39130435,47.761549 L6.62975557,45 L0,45 Z M6.7826087,45.8906251 L8.50067948,47.6086957 L6.7826087,47.6086957 L6.7826087,45.8906251 Z M7.42968757,48.6817255 L7.831182,49.0139267 L6.68070652,50.4089674 L5.7299593,49.5652174 L6.07438852,49.173913 L6.6236413,49.6599863 L7.42968757,48.6817255 Z M1.56521739,49.6956522 L2.86956522,49.6956522 L2.86956522,50.2173913 L1.56521739,50.2173913 L1.56521739,49.6956522 Z M3.65217391,49.6956522 L5.2173913,49.6956522 L5.2173913,50.2173913 L3.65217391,50.2173913 L3.65217391,49.6956522 Z M6.31487765,51.0764267 L6.7826087,51.5441577 L7.25033974,51.0764267 L7.61922548,51.4453124 L7.1514947,51.9130435 L7.61922548,52.3807745 L7.25033974,52.7496603 L6.7826087,52.2819295 L6.31487765,52.7496603 L5.94599191,52.3807745 L6.41372296,51.9130435 L5.94599191,51.4453124 L6.31487765,51.0764267 Z M1.56521739,51.7826087 L2.86956522,51.7826087 L2.86956522,52.3043478 L1.56521739,52.3043478 L1.56521739,51.7826087 Z M3.65217391,51.7826087 L5.2173913,51.7826087 L5.2173913,52.3043478 L3.65217391,52.3043478 L3.65217391,51.7826087 Z M6,53.3478261 L7.56521739,53.3478261 L7.56521739,54.9130435 L6,54.9130435 L6,53.3478261 Z M1.56521739,53.8695652 L2.86956522,53.8695652 L2.86956522,54.3913043 L1.56521739,54.3913043 L1.56521739,53.8695652 Z M3.65217391,53.8695652 L5.2173913,53.8695652 L5.2173913,54.3913043 L3.65217391,54.3913043 L3.65217391,53.8695652 Z M6.52173913,53.8695652 L6.52173913,54.3913043 L7.04347826,54.3913043 L7.04347826,53.8695652 L6.52173913,53.8695652 Z" id="Shape-Copy-8"></path>
                </g>
            </g>
        </g>
    </g>
</svg>