<?xml version="1.0" encoding="UTF-8"?>
<svg width="35px" height="35px" viewBox="0 0 35 35" version="1.1" xmlns="http://www.w3.org/2000/svg" xmlns:xlink="http://www.w3.org/1999/xlink">
    <!-- Generator: Sketch 51.2 (57519) - http://www.bohemiancoding.com/sketch -->
    <desc>Created with Sketch.</desc>
    <defs></defs>
    <g id="Page-2" stroke="none" stroke-width="1" fill="none" fill-rule="evenodd">
        <g id="Группы-НСИ_Администратор" transform="translate(-840.000000, -233.000000)" fill="#F75F83" fill-rule="nonzero">
            <g id="icons8-high_priority" transform="translate(840.000000, 233.000000)">
                <path d="M34.2936364,15.7929545 L19.2070455,0.706363636 C18.2652273,-0.235454545 16.7363636,-0.235454545 15.7945455,0.706363636 L0.707954545,15.7929545 C-0.233863636,16.7347727 -0.233863636,18.2636364 0.707954545,19.2054545 L15.7945455,34.2920455 C16.7363636,35.2338636 18.2652273,35.2338636 19.2070455,34.2920455 L34.2936364,19.2054545 C35.2354545,18.2636364 35.2354545,16.7363636 34.2936364,15.7929545 Z M19.0909091,25.4545455 L15.9090909,25.4545455 L15.9090909,22.2727273 L19.0909091,22.2727273 L19.0909091,25.4545455 Z M19.0909091,19.0909091 L15.9090909,19.0909091 L15.9090909,9.54545455 L19.0909091,9.54545455 L19.0909091,19.0909091 Z" id="Shape"></path>
            </g>
        </g>
    </g>
</svg>