<?xml version="1.0" encoding="UTF-8"?>
<svg width="19px" height="20px" viewBox="0 0 19 20" version="1.1" xmlns="http://www.w3.org/2000/svg" xmlns:xlink="http://www.w3.org/1999/xlink">
    <desc>Created with Sketch.</desc>
    <defs></defs>
    <g id="НСИ_Формы_сбора" stroke="none" stroke-width="1" fill="none" fill-rule="evenodd">
        <g id="Справочник_Администратор" transform="translate(-1363.000000, -278.000000)" fill="#000000" fill-rule="nonzero">
            <g id="icons8-external" transform="translate(1363.000000, 278.000000)">
                <path d="M9.23076923,0.0240384615 C9.14663462,0.0240384615 9.0625,0.063101 8.99038462,0.120192308 C8.92127385,0.174279231 7.29266846,1.67668308 6.25,3.22115385 C6.16887,3.34134615 6.15685077,3.47956769 6.22596154,3.60576923 C6.29507231,3.73197154 6.44230769,3.82211538 6.58653846,3.82211538 L7.93269231,3.82211538 C7.93269231,3.82211538 8.19411077,9.47716385 8.29326923,9.61538462 C8.4375,9.81971154 8.83713923,9.97596154 9.23076923,9.97596154 C9.62439923,9.97596154 10.0961538,9.81971154 10.2403846,9.61538462 C10.3395431,9.47716385 10.5288462,3.82211538 10.5288462,3.82211538 L11.8990385,3.82211538 C12.0432692,3.82211538 12.1664662,3.73197154 12.2355769,3.60576923 C12.3046877,3.47956769 12.2926685,3.34134615 12.2115385,3.22115385 C11.16887,1.67668308 9.54026462,0.174279231 9.47115385,0.120192308 C9.40204308,0.0661057692 9.31790846,0.0240384615 9.23076923,0.0240384615 Z M5.45673077,2.35576923 C2.24459154,3.80408692 0,7.02524077 0,10.7692308 C0,15.8593754 4.14062538,20 9.23076923,20 C14.3209138,20 18.4615385,15.8593754 18.4615385,10.7692308 C18.4615385,7.03425462 16.2259615,3.80709154 13.0288462,2.35576923 C13.0769231,2.42488 13.1280046,2.50300462 13.1730769,2.57211538 C13.4945915,3.04387 13.5396638,3.65084154 13.2692308,4.15865385 C13.2602162,4.17668308 13.2301685,4.18870231 13.2211538,4.20673077 C15.4356969,5.55889462 16.9230769,7.99278846 16.9230769,10.7692308 C16.9230769,15.0120192 13.4735577,18.4615385 9.23076923,18.4615385 C4.98798077,18.4615385 1.53846154,15.0120192 1.53846154,10.7692308 C1.53846154,7.98677923 3.02283692,5.55889462 5.24038462,4.20673077 C5.23137,4.19170692 5.22536077,4.17367769 5.21634615,4.15865385 C4.94591385,3.65084154 4.96694692,3.04687538 5.28846154,2.57211538 C5.33653846,2.5 5.40564923,2.42788462 5.45673077,2.35576923 Z" id="Shape"></path>
            </g>
        </g>
    </g>
</svg>