<?xml version="1.0" encoding="UTF-8"?>
<svg width="19px" height="18px" viewBox="0 0 19 18" version="1.1" xmlns="http://www.w3.org/2000/svg" xmlns:xlink="http://www.w3.org/1999/xlink">
    <desc>Created with Sketch.</desc>
    <defs></defs>
    <g id="НСИ_Формы_сбора" stroke="none" stroke-width="1" fill="none" fill-rule="evenodd">
        <g id="Справочник_Администратор" transform="translate(-1327.000000, -279.000000)" fill="#000000" fill-rule="nonzero">
            <g id="icons8-external-copy" transform="translate(1327.000000, 279.000000)">
                <path d="M9.23076923,9.97596154 C9.31490385,9.97596154 9.39903846,9.936899 9.47115385,9.87980769 C9.54026462,9.82572077 11.16887,8.32331692 12.2115385,6.77884615 C12.2926685,6.65865385 12.3046877,6.52043231 12.2355769,6.39423077 C12.1664662,6.26802846 12.0192308,6.17788462 11.875,6.17788462 L10.5288462,6.17788462 C10.5288462,6.17788462 10.2674277,0.522836154 10.1682692,0.384615385 C10.0240385,0.180288462 9.62439923,0.0240384615 9.23076923,0.0240384615 C8.83713923,0.0240384615 8.36538462,0.180288462 8.22115385,0.384615385 C8.12199538,0.522836154 7.93269231,6.17788462 7.93269231,6.17788462 L6.5625,6.17788462 C6.41826923,6.17788462 6.29507231,6.26802846 6.22596154,6.39423077 C6.15685077,6.52043231 6.16887,6.65865385 6.25,6.77884615 C7.29266846,8.32331692 8.92127385,9.82572077 8.99038462,9.87980769 C9.05949538,9.93389423 9.14363,9.97596154 9.23076923,9.97596154 Z M5.45673077,0.355769231 C2.24459154,1.80408692 0,5.02524077 0,8.76923077 C0,13.8593754 4.14062538,18 9.23076923,18 C14.3209138,18 18.4615385,13.8593754 18.4615385,8.76923077 C18.4615385,5.03425462 16.2259615,1.80709154 13.0288462,0.355769231 C13.0769231,0.42488 13.1280046,0.503004615 13.1730769,0.572115385 C13.4945915,1.04387 13.5396638,1.65084154 13.2692308,2.15865385 C13.2602162,2.17668308 13.2301685,2.18870231 13.2211538,2.20673077 C15.4356969,3.55889462 16.9230769,5.99278846 16.9230769,8.76923077 C16.9230769,13.0120192 13.4735577,16.4615385 9.23076923,16.4615385 C4.98798077,16.4615385 1.53846154,13.0120192 1.53846154,8.76923077 C1.53846154,5.98677923 3.02283692,3.55889462 5.24038462,2.20673077 C5.23137,2.19170692 5.22536077,2.17367769 5.21634615,2.15865385 C4.94591385,1.65084154 4.96694692,1.04687538 5.28846154,0.572115385 C5.33653846,0.5 5.40564923,0.427884615 5.45673077,0.355769231 Z" id="Shape"></path>
            </g>
        </g>
    </g>
</svg>