<?xml version="1.0" encoding="UTF-8"?>
<svg width="7px" height="12px" viewBox="0 0 6 12" version="1.1" xmlns="http://www.w3.org/2000/svg" xmlns:xlink="http://www.w3.org/1999/xlink">
    <!-- Generator: Sketch 51.2 (57519) - http://www.bohemiancoding.com/sketch -->
    <desc>Created with Sketch.</desc>
    <defs></defs>
    <g id="Page-2" stroke="none" stroke-width="1" fill="none" fill-rule="evenodd">
        <g id="Группы-НСИ_Администратор" transform="translate(-951.000000, -150.000000)" fill="#595959" fill-rule="nonzero">
            <g id="Header-3" transform="translate(277.000000, -1.000000)">
                <g id="Group-5" transform="translate(665.000000, 145.000000)">
                    <g id="Служебная-информация">
                        <g id="icons8-information" transform="translate(9.803922, 6.000000)">
                            <path d="M1.8627451,0 C1.15879085,0 0.588235294,0.581966667 0.588235294,1.3 C0.588235294,2.01803333 1.15879085,2.6 1.8627451,2.6 C2.56669935,2.6 3.1372549,2.01803333 3.1372549,1.3 C3.1372549,0.581966667 2.56669935,0 1.8627451,0 Z M1.13686838e-13,4.8 L1.13686838e-13,6 L1.17647059,6 L1.17647059,10.8 L1.13686838e-13,10.8 L1.13686838e-13,12 L4.70588235,12 L4.70588235,10.8 L3.52941176,10.8 L3.52941176,5.4 C3.52941176,5.0688 3.26588235,4.8 2.94117647,4.8 L1.76470588,4.8 L1.13686838e-13,4.8 Z" id="Shape"></path>
                        </g>
                    </g>
                </g>
            </g>
        </g>
    </g>
</svg>