<?xml version="1.0" encoding="UTF-8" standalone="no"?>
<svg width="24px" height="24px" viewBox="0 0 24 24" version="1.1" xmlns="http://www.w3.org/2000/svg" xmlns:xlink="http://www.w3.org/1999/xlink">
    <!-- Generator: Sketch 50.2 (55047) - http://www.bohemiancoding.com/sketch -->
    <desc>Created with Sketch.</desc>
    <defs></defs>
    <g id="mdm" stroke="none" stroke-width="1" fill="none" fill-rule="evenodd">
        <path d="M17.364625,6.32939211 L10.501125,3.36314211 C9.6235,2.98514211 8.62775,2.89851711 7.6985,3.12076711 L5.797125,3.57751711 C5.401625,3.67201711 5.1225,3.97476711 5.035875,4.35976711 L5,4.34489211 L5,17.3158921 C5,17.7603921 5.265125,18.1611421 5.678125,18.3378921 L13.624875,21.6515171 C13.728125,21.6943921 13.83575,21.7153921 13.946875,21.7153921 C14.165625,21.7153921 14.373,21.6313921 14.531375,21.4782671 C14.695875,21.3190171 14.786875,21.1046421 14.786875,20.8753921 L14.786875,9.44351711 C14.786875,8.90101711 14.464875,8.41189211 13.966125,8.19839211 L13.491875,7.99451711 C13.488375,7.99276711 13.486625,7.99014211 13.483125,7.98839211 L5.970375,4.74214211 C5.87675,4.70101711 5.86975,4.62051711 5.87325,4.57589211 C5.87675,4.53126711 5.898625,4.45251711 6.001,4.42801711 L7.90325,3.97126711 C8.647875,3.79276711 9.4485,3.86276711 10.154625,4.16639211 L17.018125,7.13264211 C17.25,7.23239211 17.399625,7.46076711 17.399625,7.71276711 L17.399625,19.2155171 C17.399625,19.4570171 17.595625,19.6530171 17.837125,19.6530171 C18.078625,19.6530171 18.274625,19.4570171 18.274625,19.2155171 L18.274625,7.71276711 C18.27375,7.11076711 17.91675,6.56826711 17.364625,6.32939211 Z M11.993,10.9730171 L11.993,11.5233921 L7.596125,9.68676711 C7.442125,9.62201711 7.342375,9.47239211 7.342375,9.30439211 L7.342375,8.75489211 L11.738375,10.5897671 C11.89325,10.6545171 11.993,10.8050171 11.993,10.9730171 Z" id="Shape" fill="#000000" fill-rule="nonzero"></path>
    </g>
</svg>