<?xml version="1.0" encoding="UTF-8" standalone="no"?>
<svg width="24px" height="24px" viewBox="0 0 24 24" version="1.1" xmlns="http://www.w3.org/2000/svg" xmlns:xlink="http://www.w3.org/1999/xlink">
    <!-- Generator: Sketch 50.2 (55047) - http://www.bohemiancoding.com/sketch -->
    <desc>Created with Sketch.</desc>
    <defs></defs>
    <g id="monitoring" stroke="none" stroke-width="1" fill="none" fill-rule="evenodd">
        <g id="Group-7" transform="translate(5.000000, 3.000000)" fill="#000000">
            <path d="M7.44537396,13.7382672 C7.79460452,13.2478577 8,12.6479152 8,12 C8,10.3431458 6.65685425,9 5,9 C3.34314575,9 2,10.3431458 2,12 C2,13.6568542 3.34314575,15 5,15 C5.64791522,15 6.24785774,14.7946045 6.73826718,14.445374 L7.64644661,15.3535534 L8.35355339,14.6464466 L7.44537396,13.7382672 Z M2,0 L10.144454,0 L14,3.56292296 L14,15.3333333 C14,16.4379028 13.1045695,17.3333333 12,17.3333333 L0,17.3333333 L0,2 C-1.3527075e-16,0.8954305 0.8954305,2.02906125e-16 2,0 Z M10.0009029,1.55058424 L10.0009029,5.79514446 L13.0192596,4.24219587 L10.0009029,1.55058424 Z M5,14.1428571 C6.18346732,14.1428571 7.14285714,13.1834673 7.14285714,12 C7.14285714,10.8165327 6.18346732,9.85714286 5,9.85714286 C3.81653268,9.85714286 2.85714286,10.8165327 2.85714286,12 C2.85714286,13.1834673 3.81653268,14.1428571 5,14.1428571 Z" id="Combined-Shape"></path>
        </g>
    </g>
</svg>