<svg width="12px" height="13px" viewBox="0 0 12 13">
  <path fill="#000" fill-opacity=".65" fill-rule="nonzero" d="M8.233 0a.463.463 0 0 0-.376.477v.462a.465.465 0 0 0 .23.406.467.467 0 0 0 .465 0 .465.465 0 0 0 .23-.406V.477A.466.466 0 0 0 8.319 0h-.086zm1.892.462a.54.54 0 0 0-.058.015.463.463 0 0 0-.231.13l-.462.462a.465.465 0 0 0 .664.65l.462-.462a.464.464 0 0 0-.375-.795zM4.622.477A4.628 4.628 0 0 0 0 5.098V7.41a4.628 4.628 0 0 0 4.622 4.622A4.628 4.628 0 0 0 9.244 7.41V5.1A4.628 4.628 0 0 0 4.622.476zm-.462.953v4.593H.924v-.925A3.692 3.692 0 0 1 4.16 1.43zm5.878.895a.468.468 0 0 0 .13.925h.462a.465.465 0 0 0 .406-.23.467.467 0 0 0 0-.465.465.465 0 0 0-.406-.23h-.462a.348.348 0 0 0-.087 0h-.043zM.924 6.947H8.32v.462a3.69 3.69 0 0 1-3.697 3.698A3.69 3.69 0 0 1 .924 7.409v-.462z"/>
</svg>