<?xml version="1.0" encoding="UTF-8"?>
<svg width="20px" height="20px" viewBox="0 0 20 20" version="1.1" xmlns="http://www.w3.org/2000/svg" xmlns:xlink="http://www.w3.org/1999/xlink">
    <!-- Generator: Sketch 51.1 (57501) - http://www.bohemiancoding.com/sketch -->
    <desc>Created with Sketch.</desc>
    <defs></defs>
    <g id="Page-2" stroke="none" stroke-width="1" fill="none" fill-rule="evenodd">
        <g id="Справочник_Администратор_exel" transform="translate(-1403.000000, -15.000000)" fill="#BBBDBF" fill-rule="nonzero">
            <g id="icons8-alarm" transform="translate(1403.000000, 15.000000)">
                <path d="M10,0 C9.172,0 8.5,0.672 8.5,1.5 L8.5,2.1953125 C5.9131836,2.862095 4,5.2048001 4,8 L4,14 L2,16 L2,17 L18,17 L18,16 L16,14 L16,8 C16,5.2048001 14.086816,2.862095 11.5,2.1953125 L11.5,1.5 C11.5,0.672 10.828,0 10,0 Z M3.9082031,0.0820312 C1.5352031,1.9100312 0,4.772 0,8 L2,8 C2,5.418 3.2289531,3.1280156 5.1269531,1.6660156 L3.9082031,0.0820312 Z M16.091797,0.0820312 L14.873047,1.6660156 C16.771047,3.1280156 18,5.418 18,8 L20,8 C20,4.772 18.464797,1.9100312 16.091797,0.0820312 Z M8,18 C8,19.1 8.9,20 10,20 C11.1,20 12,19.1 12,18 L8,18 Z" id="Shape"></path>
            </g>
        </g>
    </g>
</svg>