<?xml version="1.0" encoding="UTF-8" standalone="no"?>
<svg width="24px" height="24px" viewBox="0 0 24 24" version="1.1" xmlns="http://www.w3.org/2000/svg" xmlns:xlink="http://www.w3.org/1999/xlink">
    <!-- Generator: Sketch 50.2 (55047) - http://www.bohemiancoding.com/sketch -->
    <desc>Created with Sketch.</desc>
    <defs></defs>
    <g id="objects" stroke="none" stroke-width="1" fill="none" fill-rule="evenodd">
        <g id="object-2" transform="translate(4.000000, 2.000000)" fill="#000000" fill-rule="nonzero">
            <path d="M4.43518701,12.0511524 C5.08890017,11.8129154 5.72956976,11.5812002 6.36755391,11.3425795 C6.40591736,11.3280014 6.44773352,11.2585636 6.44811715,11.2148292 C6.45272077,10.1836197 6.45272077,9.15202662 6.44850079,8.12081712 C6.44811715,8.07132827 6.41128824,8.01224856 6.37445933,7.97426875 C6.18417663,7.7789988 6.12394601,7.52656731 6.219471,7.28833029 C6.31614689,7.04625693 6.52829676,6.902394 6.80374632,6.90201037 C7.55835535,6.90009219 8.31258075,6.90085946 9.06718978,6.90162673 C9.30542679,6.90201037 9.56975095,7.08116767 9.65491781,7.29024846 C9.74737372,7.51774371 9.67601771,7.79626235 9.49916221,7.97465238 C9.45619515,8.01800308 9.42128441,8.09127727 9.42090077,8.15074061 C9.41629716,9.41558351 9.41744806,10.6800428 9.4178317,11.9448857 C9.4178317,11.9755764 9.42205168,12.0062672 9.42588802,12.0538379 C9.86898585,11.893095 10.2998074,11.7365721 10.7306289,11.5800493 C10.9343388,11.5060078 11.1368978,11.4296646 11.3417586,11.3602267 C11.425391,11.3318378 11.4572326,11.2888707 11.4564653,11.1960312 C11.4522454,10.5499907 11.4564653,9.90433384 11.4507108,9.25829337 C11.4503272,9.19806276 11.4123474,9.12593947 11.3693803,9.0806706 C11.1810158,8.88386611 11.1177161,8.62913282 11.2224483,8.39281397 C11.3344696,8.14076612 11.5328086,8.00994676 11.8113272,8.00956312 C12.5548109,8.00879585 13.2979109,8.01033039 14.0413945,8.00879585 C14.3260513,8.00802858 14.5328303,8.13194252 14.6494552,8.3897449 C14.7576401,8.62836555 14.6905041,8.87964613 14.4944668,9.09141237 C14.4503489,9.13898305 14.4265635,9.222999 14.4261799,9.29051867 C14.4215763,10.0884784 14.4231108,10.8864381 14.4231108,11.6843978 C14.4231108,13.3888859 14.4246454,15.0933739 14.4196581,16.7974783 C14.4192745,16.9344358 14.456487,17.0103954 14.5811682,17.0740787 C14.8608378,17.2171744 15.1293819,17.3817536 15.4055987,17.5309874 C15.4915329,17.5774072 15.5318145,17.6291978 15.5298963,17.7323955 C15.5233745,18.067692 15.5275945,18.4037558 15.5275945,18.7513287 C10.4651538,18.7513287 5.41614039,18.7513287 0.35101429,18.7513287 C0.35101429,18.3838069 0.34756158,18.0212723 0.356001538,17.6595049 C0.357152442,17.6173052 0.416615787,17.56398 0.461884656,17.5378928 C0.728894257,17.3829045 0.996287493,17.2267652 1.27096978,17.0867387 C1.40831093,17.0165336 1.45818341,16.9336685 1.45818341,16.7744602 C1.4524289,13.8975852 1.45319616,11.0207102 1.4547307,8.14383519 C1.45511434,7.77592972 1.47007608,7.40840789 1.46892518,7.04050241 C1.46892518,6.97988817 1.43516534,6.90507944 1.39219828,6.86096148 C1.17697934,6.64113892 1.11789962,6.42246726 1.21956276,6.17003577 C1.31815683,5.9256606 1.52877216,5.79062126 1.82570525,5.789854 C2.563818,5.78831946 3.30193075,5.7921558 4.04042713,5.78831946 C4.32661845,5.78678492 4.5318629,5.90762978 4.64963869,6.16543216 C4.75667271,6.40060009 4.69145485,6.65533339 4.49196492,6.86594872 C4.45590327,6.90392854 4.42482888,6.96569369 4.42482888,7.01671708 C4.42137617,8.67209988 4.42214344,10.3278663 4.42252707,11.9832491 C4.42252707,11.9997454 4.42828159,12.0154744 4.43518701,12.0511524 Z" id="Shape"></path>
            <path d="M16.1928167,0.394418605 C15.9891068,0.978693925 15.5851397,1.38995009 15.0952384,1.72754844 C14.3843637,2.21783331 13.5814168,2.49289924 12.7527663,2.69852732 C11.5715557,2.9920077 10.3646416,3.1143871 9.15580934,3.22794291 C7.9205063,3.34380052 6.68597053,3.469249 5.45450384,3.61848281 C4.96114989,3.67832979 4.48237405,3.82756361 4.03390534,4.05851157 C3.56778944,4.29828312 3.22213477,4.64815777 3.01382125,5.13076995 C2.98850137,5.18984966 2.96241423,5.24854574 2.91944716,5.34675617 C2.86727287,5.03409406 2.88530369,4.76670082 2.96356513,4.50237666 C3.16420597,3.82334363 3.62993823,3.3602968 4.2092263,2.99699495 C4.92585552,2.54775897 5.7211298,2.29993109 6.53865489,2.11847198 C7.48699934,1.90747301 8.44953826,1.79468447 9.41744806,1.72064302 C10.6826746,1.62396713 11.9494357,1.54225298 13.2123604,1.42332629 C14.0034147,1.3489012 14.7933181,1.22767271 15.5076455,0.841736414 C15.744348,0.71398613 15.9599506,0.547872398 16.1928167,0.394418605 Z" id="Shape"></path>
            <path d="M7.98303873,6.57668832 C8.04020026,6.02387103 8.30951167,5.61031306 8.72613872,5.28614192 C9.2310017,4.8933002 9.82218244,4.68575395 10.4425194,4.59981982 C11.1652868,4.49969122 11.8957268,4.44751693 12.6246324,4.39764445 C13.4505974,4.34086655 14.2850024,4.36158281 15.0910185,4.13178575 C15.2870557,4.07577512 15.4804075,3.99904822 15.6622502,3.90620868 C15.8437093,3.81375277 16.0086721,3.68983883 16.193584,3.57129577 C16.1134044,3.88012153 15.9423034,4.12488033 15.7293862,4.34163382 C15.2782321,4.80122793 14.7085349,5.04445219 14.0997069,5.20596231 C13.3466325,5.40583588 12.5739926,5.45685926 11.7998182,5.50327904 C11.0701454,5.54701337 10.3385545,5.58460955 9.61271802,5.66900913 C8.98010475,5.74266695 8.42920563,6.01082746 8.03598028,6.54101032 C8.02792396,6.55290298 8.01104404,6.5586575 7.98303873,6.57668832 Z" id="Shape"></path>
            <path d="M12.7688789,7.74293716 C12.8129969,7.3017575 13.1030246,7.1126257 13.4222084,6.96722823 C13.9566113,6.72400396 14.540503,6.69369684 15.1117347,6.61543541 C15.4750366,6.56594656 15.8214585,6.47387428 16.1275988,6.26249168 C16.1433278,6.25174991 16.1636605,6.24791357 16.2020239,6.23333546 C16.1099516,6.56172658 15.9089272,6.77656189 15.644603,6.93999018 C15.2126306,7.20699978 14.7261821,7.2783558 14.2335954,7.32554284 C13.9965093,7.34817727 13.757505,7.36122084 13.522337,7.39689885 C13.2537929,7.43794774 12.9956069,7.51620918 12.7688789,7.74293716 Z" id="Shape"></path>
        </g>
    </g>
</svg>