<?xml version="1.0" encoding="UTF-8"?>
<svg width="20px" height="18px" viewBox="0 0 15 13" version="1.1" xmlns="http://www.w3.org/2000/svg" xmlns:xlink="http://www.w3.org/1999/xlink">
    <!-- Generator: Sketch 51.2 (57519) - http://www.bohemiancoding.com/sketch -->
    <desc>Created with Sketch.</desc>
    <defs></defs>
    <g id="Page-2" stroke="none" stroke-width="1" fill="none" fill-rule="evenodd">
        <g id="Группы-НСИ_Администратор" transform="translate(-20.000000, -497.000000)" fill="#000000" fill-rule="nonzero">
            <g id="submodule" transform="translate(20.000000, 497.000000)">
                <path d="M0.0975099182,8.40077466 C0.0975099182,7.74297466 0.100109918,7.08517466 0.0964699182,6.42737466 C0.0943899182,6.09665466 0.235829918,5.86681466 0.532749918,5.71913466 C1.66998992,5.15389466 2.80618992,4.58553466 3.94030992,4.01353466 C4.19146992,3.88717466 4.42754992,3.88977466 4.67766992,4.01561466 C5.81178992,4.58761466 6.94798992,5.15493466 8.08522992,5.72121466 C8.37538992,5.86577466 8.51682992,6.09197466 8.51630992,6.41645466 C8.51422992,7.73205466 8.51422992,9.04765466 8.51630992,10.3632547 C8.51682992,10.6866947 8.37902992,10.9149747 8.08782992,11.0595347 C6.94590992,11.6273747 5.80502992,12.1978147 4.66518992,12.7708547 C4.42026992,12.8940947 4.18730992,12.8914947 3.94290992,12.7687747 C2.80826992,12.1978147 1.67258992,11.6299747 0.534829918,11.0652547 C0.237909918,10.9175747 0.0949099182,10.6887747 0.0964699182,10.3575347 C0.100109918,9.70545466 0.0975099182,9.05337466 0.0975099182,8.40077466 Z M3.76818992,11.5108947 C3.77598992,11.4765747 3.78066992,11.4656547 3.78066992,11.4552547 C3.78118992,10.4573747 3.78014992,9.45949466 3.78482992,8.46109466 C3.78534992,8.35865466 3.72658992,8.33213466 3.65742992,8.29781466 C2.86858992,7.90417466 2.08026992,7.50949466 1.29090992,7.11637466 C1.24930992,7.09557466 1.20458992,7.08049466 1.15362992,7.05969466 C1.14894992,7.09869466 1.14426992,7.12001466 1.14426992,7.14133466 C1.14374992,8.12309466 1.14582992,9.10433466 1.14114992,10.0860947 C1.14062992,10.1911347 1.19314992,10.2264947 1.27166992,10.2654947 C1.87486992,10.5650147 2.47702992,10.8676547 3.07918992,11.1687347 C3.30434992,11.2805347 3.52898992,11.3918147 3.76818992,11.5108947 Z M1.86706992,6.22301466 C1.90086992,6.24693466 1.92114992,6.26513466 1.94402992,6.27657466 C2.70218992,6.65617466 3.45930992,7.03733466 4.22058992,7.40965466 C4.27518992,7.43617466 4.36982992,7.42161466 4.42962992,7.39249466 C5.16074992,7.03265466 5.88926992,6.66709466 6.61778992,6.30205466 C6.65730992,6.28229466 6.69370992,6.25577466 6.74830992,6.22249466 C5.94438992,5.82053466 5.16282992,5.42741466 4.37762992,5.04261466 C4.32770992,5.01817466 4.23930992,5.03845466 4.18262992,5.06653466 C3.74010992,5.28181466 3.30070992,5.50385466 2.86078992,5.72381466 C2.53266992,5.88865466 2.20558992,6.05297466 1.86706992,6.22301466 Z" id="svg_2"></path>
                <path d="M9.05294992,10.6419747 C9.05294992,10.2868147 9.05294992,9.94881466 9.05294992,9.60561466 C9.33218992,9.63005466 9.59842992,9.65969466 9.86518992,9.67529466 C10.1439099,9.69141466 10.4236699,9.70233466 10.7029099,9.70129466 C11.3986699,9.69869466 11.9108699,9.08405466 11.7366699,8.41533466 C11.3898299,7.08101466 11.0133499,5.75449466 10.6483099,4.42485466 C10.6441499,4.41029466 10.6306299,4.39885466 10.6082699,4.36661466 C10.0945099,5.20485466 9.58698992,6.03269466 9.06074992,6.89173466 C9.04774992,6.61821466 9.06854992,6.37121466 9.01654992,6.14085466 C8.96506992,5.91309466 8.83974992,5.70249466 8.74718992,5.48461466 C8.73054992,5.48877466 8.71390992,5.49345466 8.69726992,5.49761466 C8.72066992,5.45497466 8.74250992,5.41181466 8.76746992,5.37021466 C9.27030992,4.54809466 9.77314992,3.72545466 10.2770299,2.90385466 C10.4871099,2.56117466 10.7611499,2.56169466 10.9712299,2.90489466 C12.2213099,4.94589466 13.4708699,6.98689466 14.7204299,9.02789466 C14.8883899,9.30245466 14.8842299,9.53801466 14.6424299,9.75329466 C14.4458699,9.92853466 14.2139499,10.0777747 13.9742299,10.1885347 C13.3413899,10.4807747 12.6596699,10.5988147 11.9727499,10.6757747 C11.0216699,10.7823747 10.0695499,10.7802947 9.11950992,10.6544547 C9.09766992,10.6518547 9.07686992,10.6466547 9.05294992,10.6419747 Z" id="svg_3"></path>
                <path d="M2.22950992,4.27405466 C2.17646992,3.94645466 2.19622992,3.63601466 2.25082992,3.33025466 C2.53786992,1.71409466 3.68758992,0.566454656 5.30322992,0.273694656 C7.14194992,-0.0591053442 9.06334992,1.21697466 9.46166992,3.03853466 C9.47466992,3.09781466 9.47674992,3.17737466 9.44762992,3.22573466 C9.05242992,3.88249466 8.65098992,4.53509466 8.24226992,5.20433466 C7.70302992,4.93497466 7.17210992,4.66925466 6.65990992,4.41341466 C6.82006992,4.13157466 6.99374992,3.87105466 7.12114992,3.58973466 C7.30574992,3.18413466 7.38374992,2.75253466 7.28650992,2.30741466 C7.15286992,1.69589466 6.68954992,1.33345466 5.98598992,1.27989466 C4.56846992,1.17173466 3.34646992,2.23097466 3.25026992,3.64849466 C3.24662992,3.69945466 3.22114992,3.77329466 3.18266992,3.79357466 C2.87430992,3.95633466 2.55970992,4.10921466 2.22950992,4.27405466 Z" id="svg_4"></path>
            </g>
        </g>
    </g>
</svg>