<?xml version="1.0" encoding="UTF-8"?>
<svg width="20px" height="20px" viewBox="0 0 20 20" version="1.1" xmlns="http://www.w3.org/2000/svg" xmlns:xlink="http://www.w3.org/1999/xlink">
    <!-- Generator: Sketch 51.1 (57501) - http://www.bohemiancoding.com/sketch -->
    <desc>Created with Sketch.</desc>
    <defs></defs>
    <g id="Page-1" stroke="none" stroke-width="1" fill="none" fill-rule="evenodd">
        <g id="Навигация-2" transform="translate(-19.000000, -680.000000)" fill="#FFFFFF" fill-rule="nonzero">
            <g id="icons8-user" transform="translate(19.000000, 680.000000)">
                <path d="M10,0 C7.54540111,0 5.55555556,1.98984556 5.55555556,4.44444444 C5.55555556,6.89904333 7.54540111,8.88888889 10,8.88888889 C12.4545989,8.88888889 14.4444444,6.89904333 14.4444444,4.44444444 C14.4444444,1.98984556 12.4545989,0 10,0 Z M6.45616322,12.65842 C3.32616322,13.3517533 0,14.8722222 0,17.2222222 L0,20 L20,20 L20,17.2222222 C20,14.8722222 16.6738367,13.3517533 13.5438367,12.65842 C12.7327256,13.7373089 11.4533333,14.4444444 10,14.4444444 C8.54666667,14.4444444 7.26727433,13.7373089 6.45616322,12.65842 Z" id="Shape"></path>
            </g>
        </g>
    </g>
</svg>